<svg xmlns="http://www.w3.org/2000/svg" viewBox="0 0 538.66 262.06"><defs><style>.cls-1{fill:#949697;}.cls-2{fill:#969799;}.cls-3{fill:#959798;}.cls-4{fill:#4784c5;}.cls-5{fill:#5ba8da;}.cls-6{fill:#609dce;}.cls-7{fill:#467bbc;}.cls-8{fill:#3db0e1;}.cls-9{fill:#3f65ae;}.cls-10{fill:#4b7cbc;}.cls-11{fill:#3f9cd3;}.cls-12{fill:#468eca;}.cls-13{fill:#c2c2c3;}.cls-14{fill:#fdfdfd;}.cls-15{fill:#e33423;}.cls-16{fill:#edf1f2;}.cls-17{fill:#eb1e23;}.cls-18{fill:#f69e81;}.cls-19{fill:#f5cfbe;}.cls-20{fill:#423834;}.cls-21{fill:#f9b9a1;}.cls-22{fill:#f7af94;}.cls-23{fill:#12100c;}.cls-24{fill:#292d2e;}.cls-25{fill:#20231c;}.cls-26{fill:#2c2e30;}.cls-27{fill:#291d1d;}.cls-28{fill:#241511;}.cls-29{fill:#201e18;}.cls-30{fill:#501c1a;}.cls-31{fill:#222122;}.cls-32{fill:#525253;}.cls-33{fill:#010303;}.cls-34{fill:#040200;}.cls-35{fill:#29251e;}.cls-36{fill:#323638;}.cls-37{fill:#343c3a;}.cls-38{fill:#c6d1d8;}.cls-39{fill:#c3d0d7;}.cls-40{fill:#f0f3f4;}.cls-41{fill:#f3f5f5;}.cls-42{fill:#d4dae4;}.cls-43{fill:#0c0e0d;}.cls-44{fill:#060909;}.cls-45{fill:#4e718b;}.cls-46{fill:#000303;}.cls-47{fill:#6b6f70;}.cls-48{fill:#5aa7e2;}.cls-49{fill:#262628;}.cls-50{fill:#2f282c;}.cls-51{fill:#1d1c26;}.cls-52{fill:#fbfbfb;}.cls-53{fill:#323434;}.cls-54{fill:#2b2e31;}.cls-55{fill:#020406;}.cls-56{fill:#ccd7db;}.cls-57{fill:#e8eef2;}.cls-58{fill:#d1ecf5;}.cls-59{fill:#cc2725;}.cls-60{fill:#73180c;}.cls-61{fill:#a43426;}.cls-62{fill:#d4dbe3;}.cls-63{fill:#f28262;}.cls-64{fill:#e53423;}.cls-65{fill:#cd2825;}.cls-66{fill:#f59675;}.cls-67{fill:#ef5f43;}.cls-68{fill:#eb3f30;}.cls-69{fill:#f27b5b;}.cls-70{fill:#bbc7d5;}.cls-71{fill:#cedade;}.cls-72{fill:#bccdcd;}.cls-73{fill:#ef6145;}.cls-74{fill:#406db3;}.cls-75{fill:#4392cd;}.cls-76{fill:#3cb1e2;}.cls-77{fill:#4b82c2;}.cls-78{fill:#bbc6d4;}.cls-79{fill:#e3e9ed;}.cls-80{fill:#ccd4de;}.cls-81{fill:#ed4834;}</style></defs><title>Ресурс 1</title><g id="Слой_2" data-name="Слой 2"><g id="Слой_1-2" data-name="Слой 1"><path class="cls-1" d="M268.05,261.43c0-35.89.12-71.78-.14-107.66,0-2.31,1-6.56-.64-8.54-1.83-2.26-6-1.36-8.44-1.36-6,0-15.7,2.72-16.56-5.18s.14-16.5.13-24.48q0-6.69-.05-13.36c0-3.35-.94-7.3,2.79-8.67,6-2.22,14.25,2.15,20.1-.41,4.59-2,3.09-11.73,4.09-16A50,50,0,0,1,288.17,47.4,59.15,59.15,0,0,1,321.56,36c17.65-.69,35.37-.46,53-.38,8.1,0,16.2.09,24.31.13,4.42,0,8.84,0,13.26,0,2.84,0,6.56-.33,8.8,1.86,3.89,3.79,1.88,13.54,1.77,18.23-.18,8.3-1.19,16.75-.9,24.94l.24,6.33c.09,2.33-.44,3.37,1.25,4.26,2.53,1.34,9.06.39,12,.4,3.51,0,5.49.37,6.56-3.37,1.17-4.13.33-9.68.33-14,0-7.24-.85-15.12-.06-22.32s10.94-4.62,16.46-4.62q12.26,0,24.49,0c6.83,0,14.33-.85,21.11.06,2.59.35,3.15.73,3.73,3.23,1.34,5.81.13,13.35.15,19.25q0,6.24-.07,12.47c0,2.1-.74,5.8.48,7.68C510,92.54,512.82,92,515.33,92c4.88-.06,9.75,0,14.62,0,6.69,0,8.42,1.25,8.37,8-.07,9.62-.24,19.23-.08,28.85.1,6,2.52,14.57-5.5,15.14-4.54.32-9.29-.13-13.84-.12-2.91,0-8.15-1.17-10.23,1.51-1.91,2.46-.71,8.13-.69,11q0,7,0,14.05c0,10.09-.14,20.18,0,30.27,0,2.73-.32,5.4,2.45,6.69,3.14,1.46,9.85-.91,13.17-1.34,3.81-.49,12.51-3.23,14.48,1.51,1,2.48.26,6.37.23,8.91-.05,5-.06,10-.06,15,0,10,.1,20,.12,30H499.9c-11.28,0-25.15,2.32-35.74-1.93-17-6.8-23.67-24.11-25.22-41.18-1.09-12-.53-24.31-.45-36.36,0-5.88.13-11.75-.05-17.62-.11-3.38.59-7.19,0-10.51-1.3-6.86-10.82-6.07-11.72.62-.37,2.73.22,5.61.18,8.36-.09,6.44-.19,12.87-.15,19.32.15,23.84,2.74,50-3,73.34-.41,1.68-1.18,5-2.83,6s-6.82,0-8.78,0H364.9c-2.06,0-8.16,1-9.87,0-3.93-2.39-3.67-10.24-3.69-14.09,0-6.4,0-12.79,0-19.19q0-19.34,0-38.66V171.82c0-5.77,1.07-13-.77-18.55-1.18-3.55-4.32-5.78-8.19-4.5-4.86,1.61-4.64,8-4.73,12.21-.62,28.46-.06,57-.05,85.48,0,4.53.36,13.39-4.78,15-2.93.89-7.95,0-11,0H268.05Z"/><path class="cls-2" d="M115.38,87.65l62.41-.11,31.21,0h15.6c3,0,6.69-.64,9.62,0,5.13,1.09,2.94,8.68,2.88,12.59-.15,10.05,1,20.11,0,30.14-.55,5.39-1.32,9.7-.9,15.12q.6,7.65.89,15.33c.42,10.21.49,20.44.44,30.66-.12,23.37-.94,46.74,0,70.11H116.25c-3,0-3.89-.05-5.36-2.92a14.69,14.69,0,0,1-1.43-4.95c-.58-4.93-.11-10.17-.14-15.14-.08-10.41-.23-20.82-.33-31.23-.17-20-.71-40.27,1-60.2.45-5.27,1.8-10.38,2-15.71s0-10.45-.12-15.66,0-10.49.11-15.75C112.09,95.49,112.14,91,115.38,87.65Z"/><path class="cls-3" d="M110.48,143.78c-7.92,0-15.83.06-23.75.11-3.7,0-10-1.17-13.54.25-2.34.94-2.26,2.47-2.29,4.85-.1,6.23.38,12.51.82,18.71a190.27,190.27,0,0,1,.68,23.39c-.4,7.58-1.32,15.12-1.31,22.72,0,15.88,1.2,31.76,1.86,47.62H7.13q0-66.1,0-132.19c0-11,.05-22.07-.08-33.1,0-4.06.06-7.51,4.5-8.69,4.73-1.25,11.22-.06,16.11-.06l65.2.07c4,0,16-1.58,17.9,1.1,1.32,1.91,1.11,6.35,1.43,8.67.43,3.23.76,6.48,1,9.74A134.61,134.61,0,0,1,110.48,143.78Z"/><path class="cls-4" d="M167,.5c0,15.62-.83,31.54.37,47.11.31,4.09,1.62,11-1.54,14.38-2.54,2.68-9.77,3.66-12.28.6-2.64-3.24-.87-9.67-.8-13.52.15-8,0-16,.06-24q0-5.84,0-11.66c0-3.3-.72-7.79,0-11,.71-3.07.41-1.95,3.53-1.91C159.86.55,163.47.5,167,.5Z"/><path class="cls-5" d="M26.09,64.06C11.87,69.46.68,57.6.08,43.69c-.22-5.17-.14-10.58,2.3-15.27C5.53,22.35,14,17,20.88,16.89c1.84,0,4.25.19,5.81,1.3,2.16,1.53,1.71,1.48.15,3.57A79.76,79.76,0,0,1,19.57,30c-4.74,4.71-7.31,9.14-4.1,15.68,1.42,2.89,6.52,7.58,6.83,9.92C22.88,60,17.6,64.45,26.09,64.06Z"/><path class="cls-6" d="M188.13.5c1.12,2.94,2.89,10.21.26,12.81-1.93,1.9-8.86,1.69-11.22,1-4.07-1.25-3.49-5.77-3.52-9.42,0-2.66-.42-3.59,1.79-4.36C178.69-.63,184.64.5,188.13.5Z"/><path class="cls-7" d="M146,59.59c-.68,7-11.23,5-16.4,5.58-7.63.81-17.31,2.44-23.69-3.05a14.27,14.27,0,0,1-2-19.33c2.37-3,2.88-5.83,6.66-5.41,7.39.81,28-2,18.52-6.56-.92-.44-3.58-2.13-5.53-1.27-5.88,2.58-13,5.36-20.11,3.94,1.07-7.69,3.59-14.45,11.93-16.22,6.09-1.3,14.51-1.57,20.47.53,7.65,2.7,9.32,10,9.7,17.38.22,4.26.06,8.54,0,12.81C145.6,51.76,146.39,55.86,146,59.59Z"/><path class="cls-8" d="M268.43,50.91c-3.1,7.12-10,15.36-19.12,15.82-7.57.39-16.15-2.45-20.77-8.69-8.35-11.26-5.69-30,6.13-37.74,14.14-9.25,30.08-1.77,34.9,13.57,3.74,11.92-6.28,11-16.21,11.13-5.41.09-10.23.74-13.87,2.68-.73,2.06,1.5,4,4.85,4"/><path class="cls-9" d="M96.73,41.69c0,6.15.75,12.46.3,18.59-.4,5.48-2.9,6.13-7.86,4.22-10-3.86-21.69,5.61-30.89-3.15-5.94-5.66-5.2-15.59-4.82-23.05.18-3.6.32-7.12.18-10.73-.14-3.79-.68-8.78,3.68-10.32,9.75-3.44,12.05,5.8,11.4,12.9-.53,6-3.52,15.65,1.4,20.55S80,51.94,81.46,46.53c1.62-6,1-12.46.86-18.56-.09-3.26-1-8.37,2.27-10.3,2.3-1.35,7.89-1.21,10.06.35C100.59,22.31,96.74,35.66,96.73,41.69Z"/><path class="cls-10" d="M26.07,63.91c-3-.21-5.92-.73-8.87-1.13,1.16-2.33,2.33-6.78,4.23-8.51C23,52.81,26.15,52.41,28,50.9a12.41,12.41,0,0,0,4.75-9.21c.21-6.43-4.83-13-11.54-13.1.95-4.09,1.1-7.87,5.62-9.36,4-1.3,13.19-3.52,17.21-1.64,4.58,2.14,3,9.82,3,13.84,0,7.82,0,15.64,0,23.46,0,3.72,0,7.45,0,11.17,0,3.17.83,7.5,0,10.56-1.15,4.14-5.35,3.6-8.94,3.44C26.5,79.52,39.06,61.8,26.07,63.91Z"/><path class="cls-11" d="M217.32,64.09a5,5,0,0,1-1.53.22c-5.2-.06-12-.83-14.59-6s-.91-11.76-.73-17.3c.08-2.84.16-6.09-1-8.75-1.23-2.83-3.14-2.64-5.12-4.3a5.66,5.66,0,0,1-1.5-6.39c1.51-3,5.58-2,6.92-5.26,1.12-2.76-1.09-6.1.29-8.75,1.55-3,5.53-2.85,8.45-2.52,8.63,1,2.1,7.73,7.61,11.05,1.89,1.13,4.5.18,6.19,2,1.5,1.6,1.87,5.79,1.14,7.83-1.09,3-3.47,1.95-5.81,3.27-3.25,1.83-3.8,3.48-4,6.46-.28,3.37.81,7.14.76,10.78s2.09,3.73,4.82,4.82c3.68,1.46,5.91,5.72,4.36,9.36C221.91,64.42,220.54,63,217.32,64.09Z"/><path class="cls-12" d="M174,41.64c0-6.1-.78-12.73.13-18.77.48-3.13,1.36-3.7,4.5-3.94,2.14-.17,7.43-.76,9,1.15,2.35,2.8.76,11,.74,14.32,0,6.94-.13,13.87,0,20.81.11,5,.39,8.39-5.16,8.9-3.39.32-8.05.75-9.26-3.18-.75-2.41,0-5.5.08-8C174.19,49.18,174,45.41,174,41.64Z"/><path class="cls-13" d="M110.48,143.78q0-28.15.08-56.3a11.83,11.83,0,0,1,3.21.12c2.16.83,1.61.65,1.6,3.27,0,2.86,0,5.71,0,8.57q0,9.65,0,19.29c0,6-.4,12.18-.13,18.22C115.37,141.12,115.66,144,110.48,143.78Z"/><path class="cls-14" d="M254.36,106.15c-.26-4.68-1.39-9.06,4.42-9.39,3.79-.22,16.45,2.41,18.38-2.41.46-1.14-1.59-7.33-1.64-9a29.56,29.56,0,0,1,1-8.37,44.94,44.94,0,0,1,8-15.39A51.62,51.62,0,0,1,309.77,43.1c11.7-3.77,24.23-2.54,36.33-2.6,2.63,0,7.29-1,9.63,0s2.32,5.3,2.62,8.07c.79,7.08.19,14.23,0,21.33-.15,5.76,1.36,11.73-5.8,13.23-4.42.92-9.11-.8-13.59-.51-3.69.24-7.53,1.1-9.78,4.3a10.19,10.19,0,0,0-1.89,5.77c.26,3.25,3.25,3.77,6.22,4.07,3.48.34,7.14.18,10.64.22,2.3,0,9-1.08,10.66.1,6.22,4.52-3.6,10.77-7.22,11.71-6.94,1.8-15.06.89-22.19,1-8,.17-16,.28-24,.28s-16-.12-24-.43C270.27,109.35,260.69,110.29,254.36,106.15Z"/><path class="cls-15" d="M505.52,209.58c4.49,2.59,9.53,3,14.58,2.38,2.46-.3,4.89-.85,7.32-1.35.68-.14,3.23-.94,3.66-.73.74.35,1.19,4.54,1.35,5.26,2.25,10.05,3.81,25-.86,34.71-1.16,2.41.25,1.33-2.69,2.56a22.83,22.83,0,0,1-4.09.83q-4.08.76-8.19,1.28a105.8,105.8,0,0,1-16.31.81c-9.71-.3-22.07-1.58-30.52-6.84-5.83-3.62-9.85-10.19-13.08-16.08-1.9-3.46-4.55-7.7-5.23-11.68-.87-5.15-.45-11.95.1-17.14.16-1.48.12-5.27,2.2-5.74,1.16-.25,2.79,1.89,4.32,1.59,3-.59,5.58-6.45,7.3-8.63a51,51,0,0,1,10.08-10A27.71,27.71,0,0,1,499,176.22c3.69.92,3.65,3.15,4.05,6.72a66.09,66.09,0,0,1,.19,8.9C503.05,197,501.5,205.52,505.52,209.58Z"/><path class="cls-16" d="M254.36,106.15c1.31-.56,2.62-1.8,4-2,1.94-.32,4.34.84,6.25,1.22A76.06,76.06,0,0,0,279,106.57c8.95,0,17.84-.66,26.79-.3,9.36.38,18.78.08,28.15.06a90.62,90.62,0,0,0,13.48-.82c1.59-.24,4.67-1.61,6.16-1.32,2.15.42,2.33,3.8,2.62,6.36.48,4.16.08,8.35-.11,12.52-.13,2.9.84,7.43-1.46,9.64-4.14,4-13.95,1.25-18.9,1.58-4.31.29-7.19,2.86-11.22,3.85a57.87,57.87,0,0,1-14.67,1.51c-9.11-.14-18.1-1.86-27.15-2.74a36.77,36.77,0,0,1-7.27-1.5,20.45,20.45,0,0,0-5.1-1c-3.75-.17-7.6.7-11.3-.26-2.24-.57-4.15-1.41-4.78-3.54s0-5.29,0-7.46Q254.32,114.68,254.36,106.15Z"/><path class="cls-17" d="M366.58,39a217.35,217.35,0,0,0,31.65,1.46c4.64-.17,9.25-1.25,13.84-1.38,2-.06,3.28,0,4.35,1.32,2.1,2.59,1,11.54,1,14.75,0,4.56-.36,9.12-.26,13.67.14,6.14,2.11,13.94-5.41,16.27-7.24,2.24-15.56-.09-23,.08C382.7,85.3,373.4,87.85,368,84c-5.09-3.68-3.58-12.41-3.77-17.8C363.91,56.88,362.56,47.76,366.58,39Z"/><path class="cls-18" d="M500.75,92.07c2,2,2.46,3.12,4.91,3.9,4.22,1.34,9.62,1.37,14,1.14a41.44,41.44,0,0,0,6-.74c1-.2,5.19-2.06,5.93-1.71,2.85,1.34,2.45,10.53,2,13.09-.21,1.18-.74,5-1.77,5.65s-5.3-.3-6.53-.37q-7.62-.42-15.24-.8c-9.44-.47-18.87-.93-28.31-1.43-9.07-.48-18.13-1-27.2-1.63-7-.48-19.65.79-25.54-3.83a5.74,5.74,0,0,1-2.27-5.26c.33-2.58,1.41-2.87,3.54-3.18,4.26-.61,9,0,13.35-.05a14.49,14.49,0,0,0,5.44-.88c.48-.2,4.71-1.53,4.76-1.59,1.51-1.77.78-5.25,2.92-7.32,5.18-5,15.78-2.92,22.19-2.71C486.92,84.62,497.55,82.84,500.75,92.07Z"/><path class="cls-19" d="M454,75.53l.31-18.73c0-2.11-.35-2.54,1.14-3.38.91-.5,3.3-.21,4.36-.27,2.9-.19,5.8-.39,8.71-.55,6.23-.35,12.44-.45,18.68-.41,3.39,0,11-1.61,13.12,1.81,2,3.14.38,10.58.37,14.2,0,3.22.75,5.19-2.65,6.37A18.4,18.4,0,0,1,490,75C477.94,73.75,466.09,75.11,454,75.53Z"/><path class="cls-20" d="M418.26,254.24c-6.59,3-12.66,2.48-19.93,2.51q-12.21,0-24.44,0c-2.75,0-8.94,1.11-11-1.54-2.39-3.06-.76-12.18-.76-15.5q0-46.38,0-92.75c0-15.4,0-30.79,0-46.19,0-3.51,2.39-10.12,5.91-3.85,3.22,5.73,2.2,13.6,2.25,19.93.23,29.25,0,58.5.19,87.77q.11,13.38-.16,26.77c-.09,4.08-.2,8.15-.21,12.22a13.36,13.36,0,0,0,.11,3.67c1,2.81,3.07,3,6.08,3.62,7.68,1.47,15.52-.3,23.26,0C405.52,251.2,413.42,250,418.26,254.24Z"/><path class="cls-21" d="M454,75.53c3.31-1.69,3.8-4.58,8-4.76,6.65-.29,13.55.35,20.24.3,4.61,0,13.56-.92,17.52,2,2.59,2,.93,15.15.94,19-2.28-3.92-5.58-4-9.66-3.62A87.64,87.64,0,0,1,473,88c-3.93-.4-9.11-1.42-13-.25-3.18,1-4.56,3.92-6.19,6.61Q453.93,85,454,75.53Z"/><path class="cls-22" d="M366.77,113.34l-.27-18.72c10.21,2,19.76,2.29,30.19,2.32,5,0,9.92,0,14.89,0,2.58,0,3.85-.59,5.23,1.61,1.15,1.85.53,4.74.14,6.7-1.9,9.68-10.26,8.68-18.32,9C388,114.78,377.28,115.48,366.77,113.34Z"/><path class="cls-23" d="M366.58,39c-2.57,12,.23,24.55-.05,36.69-.1,4.4.42,6.66,5.22,7,6.19.45,12.64-.15,18.87-.14,6.05,0,12.11.12,18.16.14,4.81,0,7.11-.37,7.42-5.5.79-12.69-.08-25.74-.09-38.46,3.79,5,2.33,12.31,2.36,18.5l.09,22c0,6.06-.85,8-7.21,8-7.76,0-15.52-.12-23.28-.12-6.37,0-14.68,1.51-20.86,0-4.78-1.18-4-5.93-4-10-.08-7.28-.37-14.56-.56-21.83-.09-3.36-.77-7.61-.19-10.92C362.93,41.43,364.44,41.11,366.58,39Z"/><path class="cls-24" d="M326.47,136.79c.38-6.28,6.48-4.84,11.18-4.86,3.79,0,13.82,1.87,16.55-1.29s.56-13.3.52-17.17c0-3.47-.14-7-.09-10.43,0-1.25-.26-3.08.13-4.28.67-2.05.11-1.73,2.75-2,0,10.82.4,21.63-.68,32.41-.09,1,.08,6.19-.7,7-.93.93-7.24.35-8.61.4-4.24.18-8.49.07-12.72.25s-5.38,1.06-5.51,5.37c-.28,9.5,0,19.06,0,28.56q-.1,34.06-.12,68.14,0,3.84,0,7.69c0,2.22,1.13,6.14-2,5.73-4-.55-3.68-10-3.69-12.7,0-10.83,0-21.71-.18-32.53-.22-12.44-.25-24.85,0-37.29C323.61,158.8,320.81,146.87,326.47,136.79Z"/><path class="cls-25" d="M531.24,113.3l.33-18.64c2.77,1.18,3.43.66,3.77,3.84.38,3.57.16,7.34.21,10.93.1,7.06,1,14.86.09,21.86-1.48,11.19-20.63,2.65-27.79,5.62-3,1.22-2.49,3.7-2.48,6.63,0,7.12.07,14.23.09,21.35q0,22.35.06,44.69c-3.82-3.63-2.81-10-3.21-15.19-.47-6.11-1-12.22-1.46-18.33A268.67,268.67,0,0,1,500,140.4c.27-4.65.93-9.35,6.13-10.89,3.75-1.1,7.93.5,11.85-.42C525.66,127.3,529.49,120.43,531.24,113.3Z"/><path class="cls-26" d="M254.25,131.7c5.44.1,11.06-.3,16.46.35,6.2.75,8.45,3.54,9.8,9.5,2.11,9.32.28,19.53.48,29,.48,22.55-.28,45.09-.17,67.63,0,3.64.61,9.81-2,12.79-.5.57-1.27,1.44-2.18,1.39-2.38-.13-1-1-1.39-2.53-.75-2.88,0-7.08,0-10.07q-.06-17.34-.1-34.68-.06-17.91-.11-35.81,0-7.83,0-15.66c0-3.51,1.6-12.67-.79-15.46s-10.53-1.24-13.78-1.25c-4.18,0-9.82,1.46-11-3.52-1.28-5.61,0-13.37.26-19.13a147.84,147.84,0,0,1,2-19.13c0,7.8,0,15.61,0,23.41C251.7,121.56,249.65,131.16,254.25,131.7Z"/><path class="cls-27" d="M428.21,96.91c0,3.07-.12,5.57,1,8.28a21.16,21.16,0,0,1,1.93,7.07c.28,4.47-1.06,10.77,2.1,14.56s10,1.47,14.44,2.74c7.17,2.07,6.33,10,6.86,16.24,1.16,13.95.65,28-.31,41.91-.48,6.89-1.26,13.78-1.45,20.69-.12,4.46,3.2,15.22-1.37,17.86-3.33-15.33-2.11-31.39-2.12-47.07q0-12.1,0-24.23c0-4.11.11-8.26,0-12.38-.05-1.3.18-3.39-.78-4.45-5.14-5.67-21.67,4.32-23.1-6.63-.81-6.17.29-13.24.34-19.46,0-3.94.09-7.87.15-11.81C425.83,97.41,425.1,94.18,428.21,96.91Z"/><path class="cls-28" d="M451.36,226.26l2.09-2.39c2.86,15.23,15.87,24.3,30.3,27.35,9.06,1.91,18.45,1.63,27.64,1.24,5-.22,10.18-.13,15.17-.59,2.08-.19,6.27-2.16,7,.84,1.42,5.55-22.86,4.2-26.75,4.25-8.85.1-18,.37-26.73-1.54C464.9,252.09,454.16,241.52,451.36,226.26Z"/><path class="cls-29" d="M415.78,106.33l0-6.55c0-2.73,0-2.8,2.43-3.93,1.5,20.14.2,40.83.17,61l-.09,62q0,7.75,0,15.5c0,4.83,1,10.8,0,15.49-.34,1.52,1,2.59-1.51,2.41-.79-.05-1.21-.62-1.73-1.07-1.39-1.18-1.93-4.19-2.22-5.86-.79-4.53-.17-9.27-.05-13.84.54-20.28-.56-40.57-.2-60.85.2-11.25.24-22.51.2-33.76,0-5.11,0-10.22-.09-15.33C412.59,116.21,414.36,111.42,415.78,106.33Z"/><path class="cls-30" d="M533.69,254.3c-.6-.3-4.69-1.87-5-2.45s1.6-5.09,1.78-5.81c.91-3.73.72-7.6.74-11.42,0-8.25-.12-16.49-.17-24.74,3.71,1.64,4.46.81,4.5,5.3q.06,7,0,14,0,6.48-.1,13C535.47,245.84,536.69,252.05,533.69,254.3Z"/><path class="cls-31" d="M327.19,94.17c0-5-.59-11.75,5.07-13.72,3.24-1.12,7.28-.67,10.63-.59,2.74.06,5.47.17,8.2.27,1.58.06,7.34-.53,7.89-.11,1,.75,1,3.19.22,4.19-1.3,1.63-4.09,1-5.92,1-5-.16-10.09-.6-15.11-.4C331.74,85.05,330,88.8,327.19,94.17Z"/><path class="cls-32" d="M284.52,61.63c-6.34,9.74-7.2,21.43-7.36,32.72-4.42-1.58-4-1.87-3.62-6.75a64.8,64.8,0,0,1,1.63-11.19,42.87,42.87,0,0,1,4-10.49C280,64.35,283.14,57.55,284.52,61.63Z"/><path class="cls-33" d="M275.26,252.09c9.49-1.3,18.11-4.56,27.92-4.42,3.49.05,26.49,2.27,26.13,5.52s-24.4,2.63-28.17,2.62q-7.54,0-15.07-.54C283.47,255.09,274,255.82,275.26,252.09Z"/><path class="cls-34" d="M415.82,251.86c.95.08,4.42.43,2.44,2.38-.45.44-6,0-6.71,0l-15.66.05-15.66.05c-4.59,0-10.12.9-14.55-.24,3.34-6,17.33-6.32,23.67-6.49A74,74,0,0,1,415.82,251.86Z"/><path class="cls-24" d="M275.32,254.27l53.79.07c-6.44,4.76-19,2.39-26.95,2.39S281.49,259.14,275.32,254.27Z"/><path class="cls-35" d="M503.1,94.43V50.74c3.12,0,2,1.81,2,4.28v6.39q0,6.39,0,12.78C505.05,77.44,506.8,94.12,503.1,94.43Z"/><path class="cls-36" d="M451.41,94.76c-4.09-4.22-2.24-12.93-2.17-18.67.09-7.65.36-15.3,1-22.93,1.68,7,1.3,14.37,1.37,21.53C451.63,80.69,453.11,89.14,451.41,94.76Z"/><path class="cls-37" d="M359.53,80.48c-2.11-.08-1.58.24-2.3-1.23-.63-1.27-.05-4-.06-5.54l-.12-11.08q-.14-11.08-.25-22.17c5.34.52,2.94,12.56,2.92,16Q359.63,68.5,359.53,80.48Z"/><path class="cls-38" d="M155.07,92.46c11.87,0,23.73,0,35.59-.08q7.78,0,15.57-.08c5.53,0,12.26-1.22,17.68,0,3.1.67,4,2.22,4.28,5.32.51,5.45-.17,11.29-.21,16.78s0,11,0,16.53c0,2.8.69,5.16-1.59,7-1.83,1.47-4.64,1.16-6.81,1.16-22.88,0-45.79.64-68.68.11-5.54-.12-11.07-.32-16.6-.63-2.43-.13-4.64-.22-4.32-3.42a2.89,2.89,0,0,1,1.83-2.74c1.71-1,4.71-.78,6.65-1.13a56.69,56.69,0,0,0,9.37-2.2C162.17,123.71,148.25,102.05,155.07,92.46Z"/><path class="cls-39" d="M174,207.38c10.2,0,20.4,0,30.59,0q7.11,0,14.21-.09c2.51,0,6.43-.74,8.37,1.43,2.15,2.41.93,8.11.89,10.87-.08,4.63-.1,9.26-.11,13.9,0,4.36.8,9.59,0,13.89-.58,3-1.44,3.18-4.56,4.09a25.83,25.83,0,0,1-6.55.93c-8.41.26-17-.22-25.42-.15-3.66,0-10.92.93-14.34-.78-2.4-1.2-4.51-4.84-5.7-7.05C165.38,233.23,166.37,217.55,174,207.38Z"/><path class="cls-40" d="M155.07,92.46c2.52,7.8,2.62,16,2.55,24.16,0,3.62-.06,7.23,0,10.85,0,1.4.44,3.78-.25,5.08-1.46,2.75-5.57,1.91-8.21,1.94a125.09,125.09,0,0,0-14.86,1.08,28.13,28.13,0,0,0-4.66.76c-4.23,1.32-4.71.8-4.73-4.17,0-8.54,0-17.09-.14-25.62-.07-5-2.36-13.61,4.47-14.43C137.43,91.13,146.78,92.37,155.07,92.46Z"/><path class="cls-41" d="M124.78,249.32c0-12.7-1.35-26.11-.07-38.74.32-3.16.89-3.61,4-3.74,5.88-.24,11.95.51,17.86.48a23.57,23.57,0,0,1,4.2,0c2.82.56,2.2.41,2.53,3.26.39,3.25.64,6.51.81,9.78.36,6.88.3,13.78.23,20.68,0,2.59.71,8.8-1.08,9.93-1.94,1.24-6.57.9-8.92,1.11C137.67,252.68,130.88,252.37,124.78,249.32Z"/><path class="cls-42" d="M155.16,249.4c-1.94-2.31-2.22-6.59-2.66-9.41a118.09,118.09,0,0,1-1.3-16.48c-.06-4.21-.6-10.18,1.09-14.17.71-1.67.08-1.37,1.66-2s4.61,0,6.33,0l13.74,0c-2.65,7.3-2.7,15.09-2.45,22.74.11,3.35-.19,7.11.34,10.41.55,3.48,2.83,5.83,4.43,8.86A20.79,20.79,0,0,1,155.16,249.4Z"/><path class="cls-43" d="M124.9,136.43c19.53.09,39.06,0,58.58,0h40c2.75,0,6.37.85,7.25-2.39s-.11-8.16-.1-11.53c0-5.09,0-10.18,0-15.26,0-4.7-1-10.62,2.23-14.53q0,15,0,30c0,4.28.08,8.57,0,12.85s-.51,5.44-4.71,5.81c-9.05.79-18.56,0-27.65,0l-29.94,0q-15,0-29.94,0c-4.18,0-8.37.08-12.55,0-1.85-.06-4.7.21-6.24-1.14-3.48-3.07-1.66-12.94-1.64-16.86a200,200,0,0,1,2.09-30.54c0,8.91,0,17.83,0,26.74C122.22,122.78,119.85,136.14,124.9,136.43Z"/><path class="cls-44" d="M230.22,249.57V221.5c0-3.9-1.07-9.28,0-13q-1.07-2.89,1.69-2.34c.18.86.35,1.73.52,2.59.7,1.74.35,4.06.35,5.89,0,9.16-.05,18.31,0,27.47,0,3.68,1.78,10.55-2.49,12.21-2.61,1-6.47.27-9.2.26l-14.26,0-27.44-.08-57.06-.16c-.56-6.21,17.89-3.45,21.83-3.45h29.66l29.67,0c5.12,0,10.27-.18,15.38,0C222.67,250.93,226.86,251.88,230.22,249.57Z"/><path class="cls-45" d="M122,146.55c8,6,5.42,15.1,5.72,23.83.25,7-1.78,15.78,7.29,16.94,9.93,1.26,20.6-.12,30.63,0,10.36.11,20.72-.15,31.08,0,8.63.11,18.38-1.28,26.84.48,2.3.48,10.88,3.12,6,6.39-1.39.95-6,0-7.82,0l-8.93.06c-22,.17-43.91.4-65.86.11q-8.94-.12-17.86-.36a27.53,27.53,0,0,1-4.47-.13c-2.61-.57-1.63.23-2.54-2.22s-.67-5.94-.86-8.58C120.45,170.91,121.15,158.7,122,146.55Z"/><path class="cls-46" d="M122.35,193l56.19.08,27.54,0,13.22,0c2.34,0,12.58-1,13.28.16-4.51,2.89-7.69,2.57-13,2.58H204.07q-14.37,0-28.74,0l-28.74-.08-15.48,0a48.89,48.89,0,0,1-6.63,0c-1.43.61-2.37.3-2.8-.92A1.64,1.64,0,0,1,122.35,193Z"/><path class="cls-47" d="M230.22,249.57c-1.26,3.56-4.06,2.62-6.94,2.39-4.72-.39-9.6,0-14.34,0q-14.4,0-28.81.06H135.79c-2.18,0-11.23,1-11.89-.71-1.09-2.89,6.47-1.95,7.39-1.95l15.19,0c9.25,0,18.49,0,27.74,0l27.92.06C211.3,249.47,221.13,250.53,230.22,249.57Z"/><path class="cls-45" d="M127,148.5c6.28-4.05,16.13-2.14,23.56-2.12l26.75.08q26.76.09,53.51.23c1,7.14-17,5.39-21,5.3-9.35-.2-18.7.33-28.06.15-9.59-.18-19.19.13-28.79.05C145.67,152.13,132.64,154.23,127,148.5Z"/><path class="cls-48" d="M129.38,190.9c-7.84.79-4.67-13.3-4.65-18q0-6.65,0-13.27V153c0-1.73-1.1-5.18,1.71-4.48,5.14,1.27,7.22,14.59,7.37,19.13C134.11,175.61,131.86,183.45,129.38,190.9Z"/><path class="cls-49" d="M124.43,250.35c.4,1.76-1.16,4.79-3.25,3.45-1.39-.88-.69-3.42-.7-4.85,0-4.68,0-9.37.07-14a281.94,281.94,0,0,1,1.79-29.18C122.34,220.69,121.29,235.7,124.43,250.35Z"/><path class="cls-50" d="M122.35,193l-.08,2.67c-3-3-2.2-5.73-2.23-10q0-7.21-.06-14.43,0-6.68,0-13.33c0-4.31-.78-8,2-11.33Z"/><path class="cls-51" d="M230.29,148.73l.56-2c3.49,6.14,1.94,14.84,1.9,21.86,0,8.26-.12,16.51-.17,24.76-2.24-.07-1.5-.08-2.33-1.35-.71-1.08-1-3.77-1.44-5.21a59,59,0,0,1-2.49-13A56.55,56.55,0,0,1,230.29,148.73Z"/><path class="cls-52" d="M19,92.31l55.51.06,27.75,0c3.18,0,3.42-.06,4,3.13a54.61,54.61,0,0,1,.78,6.26,129.1,129.1,0,0,1,0,13.63c-.17,5.17,2.42,16.08-3.64,18.43-3.17,1.23-7.45.58-10.76.63-4.82.06-9.64.13-14.46,0-8.25-.28-15.37-5.28-23.89-6-7.86-.66-16,0-23.83.78-3.23.31-8.45,2.69-11.46.79-3.43-2.18-2.36-8.47-2.36-12C16.63,110,14.43,99.4,19,92.31Z"/><path class="cls-53" d="M70.65,131.69c7.21.07,14.42.12,21.63.21,4,.06,11.37,2,13.2-2.61.94-2.35.15-6,.13-8.49,0-3.64,0-7.28,0-10.92V99a31.87,31.87,0,0,1,0-4.37c.41-2.85,0-2.18,2.71-2.38.09,11.49-.11,23,.08,34.46.05,2.77,1.06,7.28-1.32,9.4-2.85,2.54-10.33.87-13.82.85-5.19,0-10.38,0-15.58.09-2,0-6.48-.71-8.19,1s-.93,5.23-.94,7.19c0,6.33,0,12.66,0,19,0,23.08.07,46.16,0,69.24,0,2.64,1.16,12.11-3.38,8.73-3.6-2.68-2.52-11.26-2.54-15.07-.08-11.2-.37-22.37-.28-33.57.11-12.69.53-25.47.28-38.16C62.45,150.05,59.65,128.06,70.65,131.69Z"/><path class="cls-54" d="M14.63,252.17c-.56-44.92-.45-89.83-.43-134.75,0-5.22,0-10.44,0-15.65,0-2-.85-11,1.44-10.5,4.25,1,2,24.68,2.3,28.53,1.78,22.29,2.22,44.66,2.23,67,0,12.09-.13,24.19-.25,36.28C19.89,227.77,22.74,253.05,14.63,252.17Z"/><path class="cls-55" d="M14.63,252.17c4.32-.92,7.57-3.33,12.22-3.52s9.25.15,13.88,0c5.33-.16,10.79.85,16.06-.3,4.32-.94,7.07-5.83,11.38-5.69l0,7.76c0,.66.38,3.41,0,3.87s-3.6.37-4.28.43c-6,.56-12.11.93-18.18,1.05-5.7.13-11.41,0-17.11-.3q-4.27-.25-8.55-.69C18.35,254.61,13.13,255.06,14.63,252.17Z"/><path class="cls-53" d="M14.65,254.15l53.46.14c-6.22,4.89-19,2.46-26.84,2.46q-7.55,0-15.09-.06C21.42,256.66,18.22,257.32,14.65,254.15Z"/><path class="cls-56" d="M16.92,115.65l-.06-12.72,0-6.36c0-2.25-1.3-4.88,2.13-4.26l-.08,13.83,0,6.38C18.84,113.34,18.57,118.72,16.92,115.65Z"/><path class="cls-57" d="M123.74,54.34c-7.51,1.2-7.87-8.69-.13-9.11S130.62,53.24,123.74,54.34Z"/><path class="cls-58" d="M245.92,35.65c-9.5,0-4.11-8.38,2.36-7.15,1.94.37,6.74,3.43,4.91,6.09C252.59,35.46,245.92,36.23,245.92,35.65Z"/><path class="cls-59" d="M500.72,176.83c-8.36,1.08-18.3.34-24.36,7-6.64,7.26-12.83,15-19.22,22.45-3.84-9.76-4.87-17.5-4.45-28,.3-7.49-.34-15.51,8.44-17.25,9.1-1.8,18.45-4.54,27.8-4a35.25,35.25,0,0,1,8,1.37c2.85.86,3.41,1,4.42,3.41C503.15,166,502.23,172.73,500.72,176.83Z"/><path class="cls-60" d="M453.89,169.62q0,25.95-.27,51.9c-4.29-2-2.14-11.05-2.16-14.81q-.06-12.56-.08-25.1,0-24.56,0-49.11c6.93,2.09,5.38,7.42,5.54,13.05C457.12,154.14,457.25,161.42,453.89,169.62Z"/><path class="cls-61" d="M500.72,176.83c0-4.71.55-9.79,0-14.47-.5-4.16-3.15-7.34-3.25-12-.13-5.64-1.06-13.49,5.29-16l.42,73C498.61,198.92,500.75,186.35,500.72,176.83Z"/><path class="cls-62" d="M277.86,167.34l0-32.9c9.05.78,18-1.18,26.87,1.57,4.55,1.41,5.67-.47,10.28-.66,3.89-.15,7.57,1.77,11.49,1.44v21.94c0,2.64,1.07,7.56,0,9.87-.77,1.67-2,1.39-4.08,1.66-1.7.22-3.4.43-5.11.61C304,172.28,290.46,172.14,277.86,167.34Z"/><path class="cls-63" d="M430.21,131.68c-2.86-3.87-2.26-7.3-2.22-12.11,0-5.22.15-10.44.22-15.66,29.08,2.12,58.16,2.41,87.09,6.26a103.09,103.09,0,0,1,13.19,2.19c1.92.51,2.14.36,2.76,1.92,1.14,2.9.42,9.58.28,12.75-.32,7.43-9.45,5-14.85,5-9,.05-17.78-.58-26.76-1-10.67-.49-21.35-.14-32-.26-5.15-.06-10.3-.22-15.44-.63C438.32,129.82,433.8,129,430.21,131.68Z"/><path class="cls-64" d="M366.82,240.24q0-16.2,0-32.41V192.7c0-3.34-.66-5.37,1.64-7.64,1.6-1.59,4.71-2.6,6.81-3.27C386,178.38,407.56,179.84,413,192c3.16,7.07,2,16.07,2,23.53s.14,14.76-4.19,21.05C401,250.73,380.06,245.4,366.82,240.24Z"/><path class="cls-65" d="M366.82,240.24c6.64-3.24,17.05,2.48,24,2.53,9.75.07,20.06-4.44,22-14.74,1.29-6.91,1-14.05.68-21-.14-3.48.58-8.44-.39-11.74-.72-2.44-3.74-4.26-6-5.8-12.3-8.51-26.48-4.6-40.37-3.23l0-15c0-2-.41-4.48,0-6.43.65-3,.81-2.54,4.09-3.46,8.63-2.43,17.7-2.46,26.55-1.5,4.1.45,8.18,1.1,12.25,1.79,2.49.42,5.24.23,6.12,2.18.81,1.76,0,5.85,0,7.81q0,13.92,0,27.86t0,27.87v14.49c0,2.21.69,5.73,0,7.8v2.23H382.5c-4.09,0-9.33.94-13.33,0-2.12.74-2.86.1-2.24-1.93l0-1.94Z"/><path class="cls-66" d="M415.78,106.33c0,5,1.47,12.64-.41,17.18-2,4.9-7.93,4.56-12.26,4.71-6.06.2-12.11.63-18.17.68-2.85,0-5.7,0-8.55-.23-1.68-.12-8.56,0-9.59-1.26-.87-1.08,0-6.56,0-8a23.47,23.47,0,0,1,0-4c.41-2.34-.21-1.4,1.81-2.44,4.81-2.46,11.71-1.93,16.91-2,6.32-.12,12.62,0,18.93.15C409.52,111.2,412.37,110.12,415.78,106.33Z"/><path class="cls-67" d="M415.77,134.53c0,2.73,0,5.47,0,8.2,0,1.65.9,6.9,0,8.19s-6.55,2.12-8.17,2.52a70.54,70.54,0,0,1-8.16,1.5,67.59,67.59,0,0,1-16.33,0c-3.77-.46-15-1.58-16.33-4.92s0-10,2.27-12.87c3-3.85,7.42-3.29,11.86-3.45C392.52,133.26,404.27,132.24,415.77,134.53Z"/><path class="cls-68" d="M366.77,150.93h31.17c4.49,0,11.33-1.35,15.59,0q3.2-1.11,2.24,2l0,3.93c0,1.86.55,4.87-.51,6.17-2.73,3.34-5.53.86-8.56.12-3.93-1-7.87.26-11.81.45-4.38.21-8.43-1.21-12.79-1.39-5.11-.2-10.19.5-15.29.49Z"/><path class="cls-69" d="M415.77,134.53c-9.27,2.2-18,2.61-27.56,2.52-8.13-.07-15.44-2.18-21.41,4.45V129.42q-1-2.73,1.84-2.44c3.83-2.27,10.35-1.86,14.6-1.9,11.21-.12,21.57.26,32.51-2.3Z"/><path class="cls-70" d="M277.86,167.34c8,0,16,.1,24,.06,6.79,0,16.2-1.22,22.55,1.71,2.81,1.29,2,1.78,2,5v30c0,4.67,0,6.47-4.35,8.77-6,3.18-12.53,1.88-19,1.59-6.72-.31-13.6-.37-20.05-2.54-1.31-.43-3.39-.86-4.35-1.82-1.28-1.28-.86-3-.86-4.9V167.34Z"/><path class="cls-71" d="M277.86,209.75c9,.6,17.27.05,26.16,2,7,1.48,15.44-1.12,22.46-2q0,6.5,0,13c0,3.69,1.08,9.51,0,13,.72,2,0,2.84-2,2.39l-2,.23c-2,.22-4.08.44-6.12.64-4.4.41-8.81.74-13.24.77a78.26,78.26,0,0,1-12.14-.78c-3-.44-9.69-1-12-3.07-2-1.78-1-9.12-1-12.18Z"/><path class="cls-72" d="M277.85,235.52c10.53,0,21.12-.39,31.64.15,2.85.15,5.66.47,8.49.89,1.36.2,7.69.35,8.48,1.31s.54,13.18-.1,13.86c-.78.83-7.52,0-8.81,0H293.32c-2.49,0-14.05,1.44-15.42,0-.81-.85,0-6.82,0-8.1Z"/><path class="cls-73" d="M430.21,131.68c1.55-3.47,2.17-4.77,6.3-4.16,4.3.63,7.9,1.45,12.35,1.14,7.84-.55,15.4-1.21,23.28-1.19,7.67,0,16.1-1.08,23.68.21,2.27.39,5.7,1.49,6.8,3.81,1.22,2.57-1.71,5.41-2,8.23-.18,1.91,1.43,7.48.11,8.87-1.61,1.7-10.34,1-12.79,1.1a196.36,196.36,0,0,1-24.5-.21c-1.78-.13-3.56-.27-5.33-.45-1.42-.14-2.85-.3-4.26-.47l0-2.14c-1.18-3.63,1.05-8.18-.71-11.78-1.68-3.44-7-2.35-10.23-2.47Z"/><path class="cls-74" d="M138.77,148.62H172c1.94,0,3.59-.44,4.74.91.85,1,1.07,3.19,1.45,4.49,3.12,10.61,4.83,25.83-2.95,35.13-1.45,1.73-1.11,1.38-3.33,1.7a50.12,50.12,0,0,1-6.6,0h-11c-3.57,0-7.49.5-11,0-2.2-.32-1.92,0-3.41-1.7a19.57,19.57,0,0,1-2.43-4.28C131.83,173.17,134.86,160.33,138.77,148.62Z"/><path class="cls-75" d="M174.08,190.86c4.72-12.83,2.3-28.78,2.32-42.22h14.11c3.21,0,10.08-1.2,13,0,4.23,1.75,5.48,16.67,5.54,21.41a33.88,33.88,0,0,1-1.43,10.5c-.87,2.81-2.72,8.85-5.36,10.29s-10.15,0-13,0Z"/><path class="cls-76" d="M202.28,190.85c3-14,2.32-27.88,2.33-42.2l11.77,0c3.66,0,8.19-.71,11.77,0,3.08.64,2.14,1,2.13,4.43l0,5.53,0,12.17,0,11.06c0,1.84.41,4.84,0,6.63v2.21l-4.29,0Z"/><path class="cls-77" d="M138.77,148.62c0,14.32-.65,28.19,2.29,42.23l-11.68.05c0-7.9-.44-15.81-.87-23.7-.33-6.08-.18-12.62-1.43-18.61Z"/><path class="cls-78" d="M16.92,115.65c3,.12,1.93,2.55,1.95,5.07a68.28,68.28,0,0,0,.07,7c.51,4.56,3.32,8.64,3.68,13.54.57,7.89,0,16.48-.25,24.4-.25,6.39-3.76,15.29,3.59,18.82,7.71,3.7,17.85,1.38,25.66-.84,3.49-1,6.43-3.37,9.91-4.25a6.06,6.06,0,0,1,2.26-.37c2.7.51,1.15.17,1.64,2.28.59,2.57,0,6,0,8.58q0,15.54,0,31.09c0,1,.76,6.6,0,7.5s-6,.93-7.33,1a136.36,136.36,0,0,1-15.79,0c-5.16-.17-17.34-2.65-19.59,4.06-7,21.09,34.53,8.1,42.81,16C59,253.2,51,251.87,43.61,251.83s-14.73-.1-22.1-.15l-3.31,0q-2.19.54-1.13-2.18c-.4-1.64,0-3.77-.05-5.44,0-4-.08-8-.11-12q-.12-11.42-.16-22.85C16.69,178,16.86,146.84,16.92,115.65Z"/><path class="cls-79" d="M19,162.62V136.31c0-1.58-.75-5.39,0-6.57.63-1,3.15-1.76,4.15-2.2A31.44,31.44,0,0,1,33.74,125c8-.52,16.45-.07,24.49.09,5.21.11,11.55.05,12.42,6.59-12.24,1.82,1,24.11-9.22,29.73-4.88,2.68-11.84-.08-17-.27C35.93,160.85,27.48,162.5,19,162.62Z"/><path class="cls-80" d="M19,162.62c8.22-6.41,18.36-4.69,28.19-4.68a31.68,31.68,0,0,1,7.71.76c1.63.42,4.35,2.32,6.08,1.8,3.11-.93,3.45-6.86,4.47-9.52v15.18c0,3.48,1.41,10,0,13-2.78,6-14.22,8.83-20,9.38-4.15.39-8.3,0-12.46.51-3.42.38-9.26,2.55-12.16.57s-1.9-8.19-1.92-11.36C18.89,173.05,19,167.83,19,162.62Z"/><path class="cls-56" d="M65.52,249.65c-13.22,0-26.47.25-39.68.09-4.29-.06-6.81-.58-7-5.28-.14-2.91.14-5.92.13-8.85,0-2.45-.71-6.68.44-8.92,2.17-4.23,9.25-.53,12.9-.33,6.06.32,12.1-.6,18.15-.42A51.77,51.77,0,0,1,60,227.22a18.63,18.63,0,0,1,3.65.85c2.09,1,1.84.73,2,3.46A104.42,104.42,0,0,1,65.52,249.65Z"/><path class="cls-81" d="M453.86,148.56c9.46-3.43,19.78-2.44,29.83-2.36,4.57,0,9.51-.52,13.85,1,2.78,1,2.59,1.06,3.2,3.35a22.21,22.21,0,0,1,0,7.8q1,3-2.22,2.1l-3.32.23-7.74.57c-5.16.37-10.32.74-15.49,1-3.75.18-9.1-.79-12.42,1.3-2.41,1.51-3.17,4.65-5.64,6.1Z"/></g></g></svg>